Coordinates
version=1
nRows=16
nColumns=40
inDegrees=yes

Units are S.I. units (second, meters, Newtons, ...)
If the header above contains a line with 'inDegrees', this indicates whether rotational values are in degrees (yes) or radians (no).

endheader
time	pelvis_tilt	pelvis_list	pelvis_rotation	pelvis_tx	pelvis_ty	pelvis_tz	hip_flexion_r	hip_adduction_r	hip_rotation_r	knee_angle_r	knee_angle_r_beta	ankle_angle_r	subtalar_angle_r	mtp_angle_r	hip_flexion_l	hip_adduction_l	hip_rotation_l	knee_angle_l	knee_angle_l_beta	ankle_angle_l	subtalar_angle_l	mtp_angle_l	lumbar_extension	lumbar_bending	lumbar_rotation	arm_flex_r	arm_add_r	arm_rot_r	elbow_flex_r	pro_sup_r	wrist_flex_r	wrist_dev_r	arm_flex_l	arm_add_l	arm_rot_l	elbow_flex_l	pro_sup_l	wrist_flex_l	wrist_dev_l
      4.07500000	     -0.71655289	     11.98006652	     -4.06702989	     -0.24860727	      1.07668564	      0.25403570	     74.28357938	    -12.05599620	     16.13734166	     86.91697787	      1.51698744	     12.67395905	    -14.69623202	      0.00000000	     41.15943307	      2.39152977	    -10.69969905	     79.53962335	      1.38822831	      7.67487286	    -17.20481839	      0.00000000	    -57.85761473	    -11.83371723	    -10.37827427	     89.78293476	    -12.59139339	     49.74067409	     32.36946223	     88.36664836	      0.00000000	      0.00000000	     89.88240135	     -4.85812521	     33.39924847	     35.58190807	     88.99079949	      0.00000000	      0.00000000
      4.08333333	     -0.67327362	     11.52104446	     -3.48852152	     -0.24835208	      1.07677657	      0.25400163	     72.35368455	    -12.82222665	     14.79646563	     84.20440595	      1.46964413	     11.99114640	    -14.86300165	      0.00000000	     42.37618704	      1.90593005	    -10.03898927	     82.54228677	      1.44063468	      8.35011863	    -16.61788640	      0.00000000	    -57.88203915	    -11.10516805	    -10.29499029	     89.78432602	    -12.46561586	     49.72370542	     32.08578653	     88.33603692	      0.00000000	      0.00000000	     89.88251268	     -4.91575646	     33.54160753	     35.58837291	     88.98719724	      0.00000000	      0.00000000
      4.09166667	     -0.50386393	     12.16976933	     -3.44173367	     -0.24785690	      1.07720304	      0.25402383	     70.77579563	    -13.74072125	     14.65777572	     81.40570809	      1.42079764	     11.11289511	    -14.69198574	      0.00000000	     43.31319003	      2.24302310	    -10.44260049	     84.99405913	      1.48342618	      8.80684439	    -16.61109688	      0.00000000	    -58.11561436	    -11.48603392	    -10.91733353	     89.77829175	    -12.38463797	     49.87266282	     31.90627307	     88.35794243	      0.00000000	      0.00000000	     89.88388199	     -4.95832256	     33.60232269	     35.57634278	     88.98896470	      0.00000000	      0.00000000
      4.10000000	     -1.00134369	     11.55381538	     -2.88421024	     -0.24817338	      1.07637912	      0.25417350	     69.20439484	    -14.21055837	     13.04475083	     78.37693008	      1.36793549	      9.86174409	    -15.10815709	      0.00000000	     45.34524629	      1.47147205	     -9.74137421	     88.08369570	      1.53735051	      9.33196503	    -16.06382242	      0.00000000	    -57.56244278	    -10.77763029	    -10.61123968	     89.77995192	    -12.25875714	     49.95374047	     31.54855461	     88.32829755	      0.00000000	      0.00000000	     89.88322240	     -5.01553321	     33.85055532	     35.54095740	     88.98352411	      0.00000000	      0.00000000
      4.10833333	     -0.96106527	     11.64141445	     -2.45031958	     -0.24764729	      1.07657724	      0.25408868	     67.31111157	    -15.14909378	     12.04552349	     75.50269160	      1.31777056	      8.71281056	    -15.21695956	      0.00000000	     46.64182887	      1.45340726	     -9.54207927	     90.72980088	      1.58353376	      9.79292015	    -15.90822327	      0.00000000	    -57.62752121	    -10.54173502	    -10.93672916	     89.77717889	    -12.16247761	     50.16035920	     31.20513142	     88.30702174	      0.00000000	      0.00000000	     89.88426914	     -5.05831760	     34.05258618	     35.51109970	     88.98202642	      0.00000000	      0.00000000
      4.11666667	     -1.16061208	     11.82641683	     -1.95814890	     -0.24739636	      1.07640834	      0.25389527	     65.64403391	    -16.14580249	     11.08607746	     72.57352250	      1.26664692	      7.56676717	    -15.01055345	      0.00000000	     48.24294178	      1.54754832	     -9.39839578	     93.31469753	      1.62864871	     10.30514372	    -15.57398447	      0.00000000	    -57.46325116	    -10.36158020	    -11.35149298	     89.77459022	    -12.01905845	     50.39703378	     30.73464145	     88.29180545	      0.00000000	      0.00000000	     89.88388436	     -5.10917532	     34.28765127	     35.49484060	     88.98034227	      0.00000000	      0.00000000
      4.12500000	     -1.31321979	     11.83061775	     -1.49551456	     -0.24702159	      1.07626004	      0.25391212	     63.81381715	    -16.91265000	      9.97855282	     69.68076644	      1.21615880	      6.24806843	    -15.09789829	      0.00000000	     49.84606456	      1.38688249	     -9.20107216	     95.94875285	      1.67462165	     10.71275697	    -14.97930678	      0.00000000	    -57.32026820	    -10.10041954	    -11.60799454	     89.77089348	    -11.90512099	     50.68717346	     30.34447409	     88.28066384	      0.00000000	      0.00000000	     89.88369243	     -5.13656024	     34.50776811	     35.42952339	     88.97820695	      0.00000000	      0.00000000
      4.13333333	     -1.41783342	     12.29981951	     -1.08788006	     -0.24654607	      1.07623708	      0.25371558	     62.09649793	    -18.02203564	      9.19016895	     66.85879374	      1.16690608	      4.94466216	    -14.73609753	      0.00000000	     51.37100495	      1.64638297	     -9.40426419	     98.32173174	      1.71603795	     10.97571374	    -14.83796203	      0.00000000	    -57.27301427	    -10.17958150	    -12.24683855	     89.76822900	    -11.72607183	     51.03018426	     29.73389516	     88.27494648	      0.00000000	      0.00000000	     89.88356312	     -5.18836740	     34.78293325	     35.42558362	     88.98010145	      0.00000000	      0.00000000
      4.14166667	     -1.81323268	     11.92683823	     -0.33759030	     -0.24628391	      1.07559411	      0.25347534	     60.23513418	    -18.65799407	      7.53552854	     64.04228105	      1.11774866	      3.79085136	    -14.92302379	      0.00000000	     53.48040425	      1.39916958	     -8.70741962	    100.90013689	      1.76103960	     11.41757802	    -14.78963951	      0.00000000	    -56.83686905	     -9.50010626	    -12.33158238	     89.76514927	    -11.60969404	     51.42994441	     29.29860952	     88.22555736	      0.00000000	      0.00000000	     89.88218277	     -5.22130599	     35.10303730	     35.29224704	     88.97074808	      0.00000000	      0.00000000
      4.15000000	     -1.95766032	     12.65524524	     -0.11279696	     -0.24580582	      1.07551814	      0.25349701	     58.63817736	    -19.54927097	      7.33083459	     61.34305107	      1.07063821	      2.85280853	    -14.72431295	      0.00000000	     55.05633030	      1.65674494	     -9.29952339	    102.96509391	      1.79707990	     11.95659515	    -14.82133092	      0.00000000	    -56.78284793	     -9.92998967	    -13.03791632	     89.72933010	    -11.54788222	     51.65921158	     28.91694431	     88.27656092	      0.00000000	      0.00000000	     89.88276469	     -5.17300776	     35.23963961	     35.25154518	     88.97732535	      0.00000000	      0.00000000
      4.15833333	     -2.65264621	     12.24415146	      0.91938437	     -0.24588342	      1.07439134	      0.25289616	     57.11553621	    -20.28781475	      5.43149986	     58.74093365	      1.02522270	      0.89483488	    -14.93021820	      0.00000000	     57.66692790	      1.64444421	     -8.43606359	    105.43956032	      1.84026749	     12.06679142	    -14.40515168	      0.00000000	    -56.03954307	     -9.08520491	    -13.23192123	     89.75739160	    -11.30453885	     52.48405697	     27.92044672	     88.17048800	      0.00000000	      0.00000000	     89.88044631	     -5.24163968	     35.76382803	     35.14955710	     88.96724004	      0.00000000	      0.00000000
      4.16666667	     -2.88316116	     12.80926141	      1.13680524	     -0.24553975	      1.07423185	      0.25290118	     55.59977003	    -20.94929727	      5.14227839	     56.21062216	      0.98106043	     -0.35476277	    -14.72953280	      0.00000000	     59.37361313	      1.74015301	     -8.98662068	    107.44047123	      1.87518997	     12.32206373	    -14.28826642	      0.00000000	    -55.89171407	     -9.42882644	    -13.82322947	     89.74370908	    -11.20882038	     52.73456601	     27.55631829	     88.20437168	      0.00000000	      0.00000000	     89.88065318	     -5.23021361	     35.89351804	     35.08078803	     88.97066406	      0.00000000	      0.00000000
      4.17500000	     -3.25291115	     13.22142964	      1.48988095	     -0.24535056	      1.07393190	      0.25269685	     54.19486017	    -21.64830264	      4.51568064	     53.73639859	      0.93787708	     -1.99836930	    -14.52025373	      0.00000000	     61.32444280	      1.87871696	     -9.25201597	    109.30291900	      1.90769582	     13.19543812	    -14.36325405	      0.00000000	    -55.59886208	     -9.59483700	    -14.36400604	     89.73839730	    -11.05782471	     53.11382312	     27.04276990	     88.21822569	      0.00000000	      0.00000000	     89.87983485	     -5.24619687	     36.08724625	     35.01104300	     88.97301714	      0.00000000	      0.00000000
      4.18333333	     -3.96217937	     12.21266048	      2.42328401	     -0.24549313	      1.07233761	      0.25245159	     52.72324941	    -21.56106532	      2.45313302	     51.58477081	      0.90032409	     -4.44448832	    -15.44587717	      0.00000000	     64.15158737	      1.18563374	     -8.07350726	    111.75406604	      1.95047640	     13.36495294	    -13.08501086	      0.00000000	    -54.67841399	     -8.45423522	    -14.01297708	     89.76513863	    -10.80613113	     54.00505287	     26.08174230	     88.07916062	      0.00000000	      0.00000000	     89.87697826	     -5.28831270	     36.73451872	     34.79353307	     88.95745806	      0.00000000	      0.00000000
      4.19166667	     -4.39210486	     12.42521405	      2.68883520	     -0.24552494	      1.07197975	      0.25219346	     51.54680224	    -21.94917648	      1.85815590	     49.39840288	      0.86216478	     -6.60861545	    -15.39389588	      0.00000000	     66.26403932	      1.27562892	     -8.14009171	    113.43151741	      1.97975345	     13.91847524	    -12.97610073	      0.00000000	    -54.30039446	     -8.54800016	    -14.32188100	     89.76485919	    -10.70542316	     54.27692983	     25.74698797	     88.10383221	      0.00000000	      0.00000000	     89.87523677	     -5.25126016	     36.82799074	     34.68207041	     88.95957650	      0.00000000	      0.00000000
      4.20000000	     -5.07191505	     11.69319036	      3.15921399	     -0.24585432	      1.07059816	      0.25228296	     50.34386701	    -21.45563181	      0.76507544	     47.37404870	      0.82683313	     -8.69365523	    -16.67762401	      0.00000000	     68.96986720	      0.64027452	     -7.31701887	    115.37907946	      2.01374482	     14.49106364	    -12.19480609	      0.00000000	    -53.45426562	     -7.90394203	    -13.92856716	     89.77292925	    -10.58754043	     54.76158388	     25.23934189	     88.04083770	      0.00000000	      0.00000000	     89.87283468	     -5.21130359	     37.19202652	     34.43563099	     88.95096112	      0.00000000	      0.00000000
